<svg id="Layer_1" data-name="Layer 1" xmlns="http://www.w3.org/2000/svg" xmlns:xlink="http://www.w3.org/1999/xlink" viewBox="0 0 600 600"><defs><style>.cls-1{fill:none;}.cls-2{fill:#013368;}.cls-3{clip-path:url(#clip-path);}.cls-4{fill:#95c83f;}.cls-5{fill:#77ae42;}.cls-6{fill:#cfe294;}.cls-7{clip-path:url(#clip-path-2);}.cls-8{fill:#fff;}</style><clipPath id="clip-path"><rect class="cls-1" x="25" y="25" width="550" height="550" rx="40" ry="40"/></clipPath><clipPath id="clip-path-2"><rect class="cls-1" x="16.94" y="24.18" width="566.13" height="551.64"/></clipPath></defs><title>600x600_SKC_BankLogo_Squares</title><rect class="cls-2" x="25" y="25" width="550" height="550" rx="40" ry="40"/><g class="cls-3"><polygon class="cls-4" points="16.93 24.18 16.93 197.93 59.52 286.92 124.16 187.5 68.09 304.83 68.17 304.99 16.93 412.06 16.93 575.63 97.28 575.63 227.78 305.05 227.84 305.05 227.81 304.99 227.84 304.93 227.78 304.93 93.43 24.18 16.93 24.18"/><polygon class="cls-5" points="49.69 265.52 59.65 286.72 124.16 187.5 68.13 304.76 68.31 305.16 129.01 177.27 49.69 265.52"/><polygon class="cls-6" points="92.49 24.18 216.62 305.56 96.39 575.05 96.65 575.05 226.94 304.89 227.02 304.89 226.98 304.82 227.02 304.76 226.94 304.76 92.67 24.18 92.49 24.18"/><g class="cls-7"><path class="cls-8" d="M502.19,482.38C488.54,472.05,486,464.6,475.3,438.92c-1.11-2.68-4.52-8.8-4.52-8.8-20-45.57-41.81-99.69-65.84-153.48L364.7,186.1,357.65,188,246.09,437.86c-20.65,46-27.22,49.35-62.52,56.95v6.62H300v-6.62l-11.43-2.4c-29.36-5.67-34.27-11.38-26.11-39.84,5.45-19,19.06-55.95,25.59-70.64H404.44c15.76,36.5,31.58,73.52,35.3,84.88,2.86,8.45-1.42,20-17,25.56-6.06,2.17-8.91,2.11-15.57,3L406,501.64H536.64l-.38-6.29s-16.14.62-34.07-13M293.43,367.72l51.72-121h1.07l52.23,121Z"/></g></g></svg>