<?xml version="1.0" encoding="utf-8"?>
<!-- Generator: Adobe Illustrator 21.1.0, SVG Export Plug-In . SVG Version: 6.00 Build 0)  -->
<svg version="1.1" id="Layer_1" xmlns="http://www.w3.org/2000/svg" xmlns:xlink="http://www.w3.org/1999/xlink" x="0px" y="0px"
	 viewBox="0 0 600 600" style="enable-background:new 0 0 600 600;" xml:space="preserve">
<style type="text/css">
	.st0{fill:#2160AD;}
	.st1{fill:#FFFFFF;}
</style>
<rect x="25" y="25" class="st0" width="550" height="550"/>
<path class="st1" d="M416,356.5c-6.6,0-11.1,0-14.9-0.6v-47.1h13.3c19.1,0,34.6,6.6,34.6,23.3C448.9,349.8,433.4,356.5,416,356.5
	 M401.1,247.1h16.3c17.4,0,26.9,6.1,26.9,18.5c0,12.5-10,15.5-30.5,15.5h-12.7L401.1,247.1L401.1,247.1z M229.7,215.6l10,31.8h40.4
	v135.7h38.5V247.4h44.3v134.8c8.6,1.1,22.7,2.5,41.8,2.5c33.8,0,54.5-5.5,67-15.2c10.5-8.6,17.7-20.5,17.7-35.7
	c0-21.3-13.3-36-32.9-40.7v-0.6c19.4-7.2,27.1-19.9,27.1-34.9c0-15.2-8.3-26.9-20.2-32.9c-12.7-7.2-26.9-9.1-50.4-9.1
	C413,215.6,229.7,215.6,229.7,215.6z M206.4,311.6l-10.5-35.4c-3-10-6.1-22.4-8.6-32.4h-0.8c-2.5,10-5,22.7-7.8,32.4l-10.2,35.4
	H206.4z M163,339.9l-12.2,42.9h-39.6L163,215.6h50.7l53.2,167.2H225l-13.3-42.9C211.7,339.9,163,339.9,163,339.9z"/>
<g>
</g>
<g>
</g>
<g>
</g>
<g>
</g>
<g>
</g>
<g>
</g>
</svg>
