<svg id="Layer_1" data-name="Layer 1" xmlns="http://www.w3.org/2000/svg" viewBox="0 0 600 600"><defs><style>.cls-1{fill:#0079c1;}.cls-2{fill:#e1251b;}.cls-3{fill:none;}.cls-4{fill:#fff;}</style></defs><title>600x600_SKC_BankLogo_Squares</title><rect class="cls-1" x="25" y="25" width="550" height="550" rx="40" ry="40"/><path class="cls-2" d="M300,134.87A165.13,165.13,0,1,0,465.15,300,165.17,165.17,0,0,0,300,134.87Z"/><rect class="cls-3" x="222.08" y="209.7" width="155.84" height="162.28"/><path class="cls-4" d="M222.08,322.53H377.92V372H222.08ZM295,249.61l-28.67-37.38a6.38,6.38,0,0,0-10.08-.12l-34.12,43v67.41L256,279a6.61,6.61,0,0,1,10.42.06l28.8,37.68a6,6,0,0,0,9.54,0l28.8-37.68A6.61,6.61,0,0,1,344,279l33.93,43.5V255.12l-34.12-43a6.38,6.38,0,0,0-10.08.12L305,249.61a6.39,6.39,0,0,1-10.09,0Z"/></svg>