<svg id="Layer_1" data-name="Layer 1" xmlns="http://www.w3.org/2000/svg" viewBox="0 0 600 600"><defs><style>.cls-1{fill:#eaeae9;}.cls-2{fill:#009845;}</style></defs><title>600x600_SKC_BankLogo_Squares</title><rect class="cls-1" x="25" y="25" width="550" height="550" rx="40" ry="40"/><polygon class="cls-2" points="102.29 466.15 234.1 466.15 168.79 356.09 102.29 466.15"/><polygon class="cls-2" points="300.6 133.85 169.99 353.07 430.61 353.07 300.6 133.85"/><polygon class="cls-2" points="431.81 355.48 366.5 466.15 497.71 466.15 431.81 355.48"/><path d="M311.6,410.82c-.54.09-1.07.19-1.62.27a36,36,0,0,1-13.19-.43c-.89-.21-1.88-.48-2.73-.76h0a33.8,33.8,0,0,1-9.52-5h0c-.81-.61-1.59-1.24-2.33-1.91a39.64,39.64,0,0,1-4.81-5.09l0,0c-.34-.42-.68-.85-1-1.29l-.86-1.17a59.26,59.26,0,0,1-5.9-10.66c-.41-1-.77-1.88-1.07-2.71.82-.25,1.74-.51,2.76-.74a33.65,33.65,0,0,1,17.14.46l.82.25.69.24c.2.07.41.14.6.22l.57.22c.34.13.67.27,1,.42l.53.24.67.32.41.2a44.5,44.5,0,0,1,8.95-7.09,43.47,43.47,0,0,0-16.22-6.42,44.8,44.8,0,0,0-17.12.39,38.87,38.87,0,0,0-9.81,3.45l-3.71,2,1,4.1s0,0,0,0a72,72,0,0,0,9.6,20.57A52.81,52.81,0,0,0,279.4,414.3c.86.62,1.74,1.19,2.63,1.73a42,42,0,0,0,10.27,4.48c.92.26,1.86.5,2.82.69a46.91,46.91,0,0,0,16.31.42c.17,0,.33-.06.5-.09A31.3,31.3,0,0,0,311.6,410.82Z"/><path d="M306.17,394.25c.35.42.7.84,1.05,1.28a36.91,36.91,0,0,1,6.22,11.76c.27.89.53,1.89.73,2.78h0a34.67,34.67,0,0,1,.47,10.84h0c-.11,1-.27,2-.47,3a42.74,42.74,0,0,1-1.94,6.77.08.08,0,0,1,0,0c-.2.52-.39,1-.61,1.53s-.38.89-.57,1.33a58.61,58.61,0,0,1-6.19,10.5c-.62.85-1.22,1.61-1.77,2.3-.64-.59-1.32-1.28-2-2.06a34.52,34.52,0,0,1-8.17-15.23c-.07-.28-.14-.56-.2-.85s-.09-.48-.14-.72-.08-.43-.11-.63-.07-.42-.09-.62c-.06-.35-.1-.71-.15-1.07,0-.2,0-.4-.06-.6s0-.49-.06-.75,0-.3,0-.45a44.39,44.39,0,0,1-10.53-4.29,44.44,44.44,0,0,0,2.6,17.4A46.05,46.05,0,0,0,293,451.3a39.13,39.13,0,0,0,7.87,6.86l3.53,2.27,3-2.95s0,0,0,0a71.62,71.62,0,0,0,12.81-18.69,54.05,54.05,0,0,0,5.06-18c.09-1.07.14-2.12.16-3.18a43.56,43.56,0,0,0-1.29-11.23c-.25-.94-.52-1.88-.82-2.81a48.08,48.08,0,0,0-7.8-14.49l-.33-.4A30.65,30.65,0,0,0,306.17,394.25Z"/><path d="M294.76,407c.19-.52.37-1,.57-1.56a37.13,37.13,0,0,1,7-11.33c.62-.68,1.35-1.41,2-2h0a33.78,33.78,0,0,1,9-5.84h0q1.38-.6,2.79-1.08a41.21,41.21,0,0,1,6.76-1.68h0c.54-.1,1.07-.17,1.62-.24s.95-.11,1.42-.15a56.72,56.72,0,0,1,12.08.16c1,.12,2,.26,2.86.41q-.27,1.28-.75,2.79a34.6,34.6,0,0,1-8.95,14.78c-.2.2-.42.39-.64.59l-.55.49c-.16.12-.32.28-.48.41l-.48.39-.85.66-.48.35-.6.43-.38.26a45.34,45.34,0,0,1,1.59,11.37,43.7,43.7,0,0,0,13.61-11A46.58,46.58,0,0,0,350.23,390a41.22,41.22,0,0,0,1.94-10.32l.17-4.23-4-1.13s0,0-.06,0a69.48,69.48,0,0,0-22.4-1.88,51.93,51.93,0,0,0-18,4.6c-1,.44-1.89.93-2.79,1.44a41.59,41.59,0,0,0-9,6.75c-.69.68-1.36,1.38-2,2.12a48,48,0,0,0-8.51,14.07l-.17.48A30.26,30.26,0,0,0,294.76,407Z"/></svg>
