<svg id="Layer_1" data-name="Layer 1" xmlns="http://www.w3.org/2000/svg" xmlns:xlink="http://www.w3.org/1999/xlink" viewBox="0 0 600 600"><defs><style>.cls-1{fill:none;}.cls-2{fill:#af1f24;}.cls-3{clip-path:url(#clip-path);}.cls-4{fill:#fdd300;}.cls-5{fill:#fff;}</style><clipPath id="clip-path"><rect class="cls-1" x="25" y="25" width="550" height="550"/></clipPath></defs><title>600x600_SKC_BankLogo_Squares</title><rect class="cls-2" x="25" y="25" width="550" height="550" rx="40" ry="40"/><g class="cls-3"><path class="cls-4" d="M21.12,411.4v60.72c97.07-54.86,281.15-136.82,559.32-159.64V299.37C376,310.58,182.86,348.76,21.12,411.4Z"/><path class="cls-5" d="M21.12,494.47v41.69C159.61,433.39,362.4,362.68,580.44,339.31V326.67C365,346.17,175.6,404.37,21.12,494.47Z"/><path class="cls-4" d="M361.38,165c21.06-5.91,38.81-21,38.81-43.78,0-21.94-14.24-36.67-43.44-36.67-13.92,0-31.45,1.44-44.05,1.44-12.4,0-25.63-.15-40.71-1l-.95-.09V95l.88,0c12.64,1,13.59,3.4,13.59,23.87V240c0,10.81-1.44,16.1-11.33,16.91l-2.9.17v10c9.63-.56,27.38-1,35.1-1s13.72.42,23.49.86c58.3,2.53,77.26-30.59,77.26-57.25,0-31.87-23.35-39.89-45.73-44.4Zm9.41,49.83c0,27.91-15.56,39.34-39,39.34a47.65,47.65,0,0,1-12.41-1.44V174.19h10.32c29.59,0,41.12,15,41.12,40.59m-40.24-54.07a65.29,65.29,0,0,1-11.2-.75V119.34a145.94,145.94,0,0,1,1-19.32,56.67,56.67,0,0,1,13.08-1.72c22.14,0,31.92,9.36,31.92,29.82,0,28.4-21.43,32.43-34.79,32.59Z"/><path class="cls-4" d="M179,242.49c-11.58,7.17-25,10.24-40.27,10.24-41.13,0-61.58-31.75-61.58-82.08,0-44.3,19.59-73.58,57.13-73.58,12.78,0,23.16,4.58,30,11,1.09,4.13,2.61,25.76,2.61,25.76l10.51,0,0-.8c.09-9.35,2.7-31.1,4.65-42l.1-.84-.76-.09c-14.75-3.89-29.78-7.19-49.77-7.19-45.31,0-91.53,27.39-91.53,90.84,0,66.6,40.59,95.42,89.55,95.42,13.41,0,31.19-2,45.58-9.89l.22-.09,7-13.23-2.83-3.83-.58.36Z"/><path class="cls-4" d="M557.62,242.49c-11.56,7.17-25,10.24-40.27,10.24-41.15,0-61.58-31.75-61.58-82.08,0-44.3,19.6-73.58,57.13-73.58,12.79,0,23.17,4.58,30,11,1.07,4.13,2.6,25.76,2.6,25.76l10.5,0,0-.8c.11-9.35,2.72-31.1,4.67-42l.08-.84L560,90.1c-14.74-3.89-29.75-7.19-49.75-7.19-45.32,0-91.52,27.39-91.52,90.84,0,66.6,40.58,95.42,89.55,95.42,13.39,0,31.17-2,45.55-9.89l.24-.09L561,246l-2.8-3.83-.6.36Z"/><path class="cls-4" d="M226.39,85.92c-10.6,0-22.46-.16-32.58-1l-.83-.12V94.92l.72.06c13.22.83,15,3,15,25.9V235.77c0,17.56-.84,20.24-14.36,21.12l-.74.1V267l.84-.1c10.15-.87,21-1,31.51-1,10.35,0,20.3.13,31.28,1l.81.1V257l-.7-.1c-13.46-.88-14.2-3.56-14.2-21.12V120.88c0-23.3.83-25.07,14.15-25.9l.7-.06V84.84l-.83.11c-10.91.84-20.35,1-30.74,1Z"/></g></svg>