<svg id="Layer_1" data-name="Layer 1" xmlns="http://www.w3.org/2000/svg" viewBox="0 0 600 600"><defs><style>.cls-1{fill:#008c53;}.cls-2{fill:#fff;}</style></defs><title>600x600_SKC_BankLogo_Squares</title><rect class="cls-1" x="25" y="25" width="550" height="550" rx="40" ry="40"/><path class="cls-2" d="M442.39,217.81V382.22L300,464.4,157.61,382.22V217.81L300,135.6l142.4,82.21M300,150.27,170.34,225.13V374.86L300,449.73l129.67-74.87V225.13L300,150.27M282.2,222.2,261.86,234v23.49l20.34,11.73,12.72-7.33-7.64-4.4V234l7.64-4.41L282.2,222.2m30.52,5.87v29.37l50.85,29.37V322L330.51,341.1l-17.79-10.27V369L282.2,386.6h25.42L338.14,369V342.56h15.25L389,322V286.81l-50.85-29.37V228.07l-30.52-17.61H282.2l30.52,17.61M287.28,278v26.42l43.23,24.95L343.23,322l-30.51-17.6V278l7.63-4.42-12.73-7.35L287.28,278M211,292.65v26.43l20.34,11.75,12.72-7.34-7.64-4.41V292.65l33.06-19.07-12.72-7.35L211,292.65M261.86,325v11.78l30.52-17.65-10.18-5.85L261.86,325m0,23.49v14.67l40.67-23.48V325l-40.67,23.49M272,369l10.16,5.87,20.33-11.75V351.37L272,369m-20.36-38.16-20.33,11.73H251.7Z"/></svg>