<svg id="Layer_1" data-name="Layer 1" xmlns="http://www.w3.org/2000/svg" viewBox="0 0 600 600"><defs><style>.cls-1{fill:#e7e7e7;}.cls-2{fill:#e41c23;}</style></defs><title>600x600_SKC_BankLogo_Squares</title><rect class="cls-1" x="25" y="25" width="550" height="550" rx="40" ry="40"/><path class="cls-2" d="M344.46,211.15c-6.16,1.41-10.6,2.39-15.09.7-3.46-1.35-6.17-5.13-8.6-8.62L279,146c-2.42-3.41-5.3-7.23-8.71-8.66-4.47-1.75-9-.67-15.11.71L120.47,174.22v251l135.19-36.16c6.22-1.34,10.68-2.41,15.15-.7,3.39,1.4,6.14,5.15,8.56,8.58L321,454.13c2.41,3.44,5.2,7.1,8.6,8.56,4.47,1.65,8.93.69,15.1-.76l134.86-36.05v-251Z"/></svg>