<svg id="Layer_1" data-name="Layer 1" xmlns="http://www.w3.org/2000/svg" viewBox="0 0 600 600"><defs><style>.cls-1{fill:#28397e;}.cls-2{fill:#ffd420;fill-rule:evenodd;}</style></defs><title>600x600_SKC_BankLogo_Squares</title><rect class="cls-1" x="25" y="25" width="550" height="550" rx="40" ry="40"/><path class="cls-2" d="M213.14,375.44c-51.56-31.4-68.59-45.3-70-65.91a48.25,48.25,0,0,1,2.51-16.29l-4.85-3.14a41,41,0,0,0-6.36,21.31,49,49,0,0,0,8.69,28.09c7.25,10.89,14.87,17.73,33.65,31.45,20.21,14.82,34,32.12,42,50.2h2.87V400.62C249,415.75,273,430,284.89,455.44h2.87c-4.64-26.36-19.92-46.7-74.62-80Z"/><path class="cls-2" d="M450.66,455.48h-3.49c0-18.79-17.66-23.87-36.14-23.87H353.28a92.13,92.13,0,0,1,1.29,30.3H351.7c-5.35-42.16-29.78-63.07-63.94-85.43v19.19h-2.87c-9.08-19.82-29-38.4-47.93-51.59h0c-5-3.51-10.24-7.12-15.37-10.7v20.68h-2.87c-8-20.51-22.57-35.84-43.29-54.09-22.39-19.66-31.43-31.43-36.67-45-3.16-8.2-4.07-14.83-4.18-23.83-.21-16.08,8.13-30.65,18.52-36.07v7.78a38.87,38.87,0,0,0-7.84,23.67,52.17,52.17,0,0,0,5.95,24.18c12.62,23.43,55.08,52.16,82.05,69.8,83.87,54.9,100.6,64.47,114.54,93.59a70.21,70.21,0,0,1,4.38,12.66c12.12-1.82,56.08-8.34,64.19-9.6,1.55-.24,4.79-.63,6.45-.74a62.34,62.34,0,0,0,18.68-18L409.38,396a93.19,93.19,0,0,1-4.76,9H402q1.32-4.77,2.3-9.4l-8.22-.6v-1.69l8.91-1.1a151.57,151.57,0,0,0,2.68-25.1l-40.49-2.24c-.22,4.05-.26,7.86-.13,11.4h-2.59c-.86-3.95-1.55-7.86-2-11.67l-8.89-.5v-2.63L362,361a173.62,173.62,0,0,1-.82-28.6l-23.69-1.06a45.41,45.41,0,0,1,3.1,6.34c5.11,13.91,3.9,30.27,2.21,37.78h-2.88c-.41-8.7-3.41-19.35-6.25-25.86-6.55-15.06-21.25-28.36-45.87-43.8v19.24h-2.87c-8.2-25.27-28.59-39.34-58.9-54.54-25-12.53-32.81-27.62-31.38-51l8.45,4.88c2.17,21.86,19.37,34.46,37.38,34.33a162.65,162.65,0,0,0,30.14-3.32c13.86-2.72,26.69-5.08,37.38-1.36v-12.9h-8.4c-3,2.52-9.12,5.47-18.08,5.61-9.88.16-28.55-5.37-28.55-25.73,0-17.67,15.33-20.5,27.82-20.5,6.69,0,17.81-.24,21.55-.44,2.81-.16,4.89-.59,6.25-1.89a7.53,7.53,0,0,0,2.18-4.56,49,49,0,0,0,.38-8.24V172.53H253.25V194.9l-21.89-8.12v-5.36h10.49v-8.89h-39V154H189.48c-7.11,0-15.31,4.87-15.88,14.29-.56,9.05,3.61,16.66,13.15,16.66h1.71v10.81h-1.71c-16.71,0-29.3-12.24-29.3-28.49,0-16.94,14.78-29.82,32.65-29.82h28.23V156H328.09V183.4a147.53,147.53,0,0,1-.71,14.76,16.82,16.82,0,0,1-6.91,12.13c-3.35,2.48-8.38,3.49-16.58,3.52-2.66,0-10.45-.11-19.79-.69-12.5-.75-16.05,3.95-16.55,8.33a10.83,10.83,0,0,0,0,2.67c5.84-4.43,14.13-7.54,23.55-4.65,16.56,5.08,21.29,5.53,29.92-1.08l.86,1.9a21.91,21.91,0,0,1-5,5.21h8v42.27l24.91-14.56h69.89s29.55,15,34.42,17.55c4.3,2.2,6,4.85,6.65,8.75a15.74,15.74,0,0,1-2,10.06c-1,1.64-9,14.49-13.3,21.34a72.1,72.1,0,0,1-8.63,107.2A38.24,38.24,0,0,1,457.43,433l-6.77,22.51ZM294.78,227.78c-9.82-2.1-15.29-.92-20.93,4.32a20.27,20.27,0,0,0,10,1.73,15.09,15.09,0,0,0,10.89-6.05Zm-5.67,60.91,27.67-16.18a43,43,0,0,0-18.57-4.39c-9.53-.14-25.62,4.13-33.42,5.31,3.5,2.31,15.85,10,24.32,15.26Zm123.53,1.73,3.83-5.25-6-7.74,1-1.71,16.71,8.79-3.64,10.76a74.49,74.49,0,0,1,8.45,5L443.83,283l-27.92-14.26H354.17l-50.11,29.42c9.42,6.37,18.07,13.27,24.23,20.22,13.42-19.08,37-31.23,60.36-31.23,7.65,0,16.54.79,24,3.29Zm-5,68.27a139.37,139.37,0,0,0-3-24.32l-32.7-1.44a195.72,195.72,0,0,0-4.43,27.83l40.16-2.07Zm11-23.69a113.39,113.39,0,0,1,.61,23.09l32.41-1.67a60.47,60.47,0,0,0-6.05-20.21l-27-1.21Zm-16.53-10.34a111.69,111.69,0,0,0-9.54-23.09c-1.37-.08-2.73-.11-4.11-.11a65.53,65.53,0,0,0-6.77.51,193.61,193.61,0,0,0-8.12,24.23l28.54-1.54Zm9-19.16a134.21,134.21,0,0,1,5.58,18.36l19.8-1.06a63.81,63.81,0,0,0-25.38-17.3ZM447.53,387a50.25,50.25,0,0,0,4.21-17.46l-33.66-1.86a110.78,110.78,0,0,1-6.72,23.76L447.53,387Zm-83.06-80.26c-11.29,4.94-19.06,11.63-26,21.24l23.06-1.16a144,144,0,0,1,2.94-20.08Z"/></svg>