<svg id="Layer_1" data-name="Layer 1" xmlns="http://www.w3.org/2000/svg" viewBox="0 0 600 600"><defs><style>.cls-1{fill:#d8232b;}.cls-2{fill:#fff;}</style></defs><title>600x600_SKC_BankLogo_Squares</title><rect class="cls-1" x="25" y="25" width="550" height="550" rx="40" ry="40"/><path class="cls-2" d="M197.08,299c-11-16.94-13.43-39.42-13.43-56.76,0-58.77,54.26-108.46,110.84-108.46H471.72l-68.8,67.17H293.28c-44.09,0-97.41,43.26-96.2,98Zm67.59-48.16c4.56-14.14,18.82-32.25,32.25-41.74h0c-25.64,0-54.55,11.84-76.61,41.74Zm35.45-33.44C290,226,279,239,273.41,250.79h53.16C321,239,310,226,300.12,217.35ZM215.9,259.53C209.3,271,206,284,204.89,297h49.7a105.67,105.67,0,0,1,6.82-37.46Zm54.15,0C265.6,271,263.57,284,262.36,297h75.29c-1.22-13-3.25-26-7.72-37.46Zm108.65-8.74c-21.09-29.9-50-41.74-75.22-41.74h0c13,9.49,26.45,27.6,32.13,41.74Zm-39.9,8.74C343.38,271,345.41,284,345.41,297H395.1c-.83-13-4.17-26-11-37.46ZM220.31,349.44c22.06,31.17,51,41.89,76.61,41.89h0c-13.43-9.86-27.69-28-32.25-41.89Zm79.81,34.33c9.84-8.59,20.85-22.5,26.45-34.33H273.41c5.62,11.83,16.63,25.74,26.71,34.33ZM261.41,342c-4.4-13-6.82-25.74-6.82-37.47h-49.7c1.15,12.68,4.41,25.64,11,37.47Zm68.52,0c4.47-11.83,6.5-24.79,7.72-37.47H262.36c1.21,12.68,3.24,25.64,7.69,37.47Zm5.68,7.46c-5.68,13.92-19.09,32-32.13,41.89h0c25.26,0,54.13-10.72,75.22-41.89Zm48.5-7.46a86,86,0,0,0,11-37.47H345.41A112.9,112.9,0,0,1,338.8,342Zm18.81-41.84c1.21,56.82-51.9,99.77-96.2,99.77H197.08l-68.8,66.36H305.51c56.58,0,110.85-49.29,110.85-108.14,0-17.27-2.15-39.82-13.44-56.87Z"/></svg>