<svg id="Layer_1" data-name="Layer 1" xmlns="http://www.w3.org/2000/svg" viewBox="0 0 600 600"><defs><style>.cls-1{fill:#f58423;}.cls-2{fill:#fff;}</style></defs><title>600x600_SKC_BankLogo_Squares</title><rect class="cls-1" x="25" y="25" width="550" height="550" rx="40" ry="40"/><path class="cls-2" d="M484.66,149.8a26.64,26.64,0,0,1-1.2,26.83l-179,279a17.7,17.7,0,0,1-21.51,6.84c-7.88-3.21-12.75-11.64-10.69-19.88,10.26-41,21.8-111.58-10.66-170.85s-98-87.77-138-101.27c-8-2.72-12.53-11.37-11-19.73A17.67,17.67,0,0,1,130,136.29H461.44a26.67,26.67,0,0,1,23.22,13.5"/></svg>