<svg id="Layer_1" data-name="Layer 1" xmlns="http://www.w3.org/2000/svg" viewBox="0 0 600 600"><defs><style>.cls-1{fill:#e7e7e7;}.cls-2{fill:#01adc5;}.cls-3{fill:#0278a5;}.cls-4{fill:#7ac141;}.cls-5{fill:#008a60;}.cls-6{fill:#02a950;}</style></defs><title>600x600_SKC_BankLogo_Squares</title><rect class="cls-1" x="25" y="25" width="550" height="550" rx="40" ry="40"/><polygon class="cls-2" points="240.12 465.33 240.12 393.58 299.94 349.5 360.03 393.58 360.03 465.33 299.97 421.41 240.12 465.33"/><polygon class="cls-3" points="437.38 409.64 369.13 387.48 345.91 316.95 406.18 273.43 474.42 295.6 414.23 339.15 437.38 409.64"/><polygon class="cls-4" points="162.72 409.75 231.17 387.46 254.12 316.99 193.8 273.53 125.58 295.75 185.95 339.18 162.72 409.75"/><polygon class="cls-5" points="444.76 204.85 402.81 263.38 328.5 263.38 305.52 192.88 347.48 134.67 370.28 204.85 444.76 204.85"/><polygon class="cls-6" points="155.1 204.78 197.06 263.38 271.35 263.38 294.33 192.88 252.37 134.67 229.9 204.78 155.1 204.78"/></svg>
